<?xml version="1.0" encoding="UTF-8"?>
<svg width="96" height="96" viewBox="0 0 96 96" xmlns="http://www.w3.org/2000/svg">
  <defs>
    <linearGradient id="bg" x1="0" y1="0" x2="1" y2="1">
      <stop offset="0%" stop-color="#6D28D9"/>
      <stop offset="100%" stop-color="#EF4444"/>
    </linearGradient>
    <filter id="shadow" x="-50%" y="-50%" width="200%" height="200%">
      <feDropShadow dx="0" dy="2" stdDeviation="3" flood-color="#000" flood-opacity="0.25"/>
    </filter>
  </defs>
  <!-- Background -->
  <rect x="4" y="4" width="88" height="88" rx="20" fill="url(#bg)"/>
  <!-- Card -->
  <g filter="url(#shadow)">
    <rect x="20" y="20" width="56" height="56" rx="10" fill="#ffffff"/>
    <!-- Dog-ear -->
    <path d="M66 20 v14 a2 2 0 0 0 2 2 h14" fill="#E5E7EB"/>
    <path d="M66 20 v12 a2 2 0 0 0 2 2 h12" fill="#F3F4F6"/>
  </g>
  <!-- Flame -->
  <g transform="translate(0,2)">
    <path d="M48 64c10 0 16-7 16-14 0-9-8-12-8-20 0-3 1-4 1-7-5 3-10 8-11 15-2-4-6-6-10-8 2 6 1 10-2 14-2 3-4 6-4 10 0 7 8 10 18 10z" fill="#F97316"/>
    <path d="M48 62c7 0 11-5 11-9 0-6-5-8-5-13 0-2 0-2 0-4-3 2-6 5-6 9-1-3-3-4-6-5 1 4 1 6-1 8-2 2-3 4-3 7 0 4 5 7 10 7z" fill="#FDBA74"/>
  </g>
</svg>
